{
  "accessors": [
    {
      "bufferView": 2,
      "componentType": 5126,
      "count": 280,
      "max": [
        10.797080039978027,
        7.297873020172119,
        1.9180150032043457
      ],
      "min": [
        -10.828800201416016,
        -0.139724999666214,
        -1.6467740535736084
      ],
      "type": "VEC3"
    },
    {
      "bufferView": 2,
      "byteOffset": 3360,
      "componentType": 5126,
      "count": 280,
      "max": [
        0.9999995231628418,
        1.0,
        0.9997740983963013
      ],
      "min": [
        -1.0,
        -1.0,
        -0.999503493309021
      ],
      "type": "VEC3"
    },
    {
      "bufferView": 3,
      "componentType": 5126,
      "count": 280,
      "max": [
        0.9999991059303284,
        1.0,
        0.043151091784238815,
        1.0
      ],
      "min": [
        -1.0,
        -0.9999992847442627,
        -1.0,
        1.0
      ],
      "type": "VEC4"
    },
    {
      "bufferView": 1,
      "componentType": 5126,
      "count": 280,
      "max": [
        0.9976320266723633,
        0.9821140170097351
      ],
      "min": [
        0.003913000226020813,
        0.10098999738693237
      ],
      "type": "VEC2"
    },
    {
      "bufferView": 0,
      "componentType": 5125,
      "count": 816,
      "type": "SCALAR"
    },
    {
      "bufferView": 2,
      "byteOffset": 6720,
      "componentType": 5126,
      "count": 868,
      "max": [
        10.27756404876709,
        7.1581501960754395,
        12.769439697265625
      ],
      "min": [
        -10.189723014831543,
        3.088989019393921,
        -12.762175559997559
      ],
      "type": "VEC3"
    },
    {
      "bufferView": 2,
      "byteOffset": 17136,
      "componentType": 5126,
      "count": 868,
      "max": [
        0.9998734593391418,
        1.0,
        0.9998005032539368
      ],
      "min": [
        -0.9999321103096008,
        -1.0,
        -0.9998005032539368
      ],
      "type": "VEC3"
    },
    {
      "bufferView": 1,
      "byteOffset": 2240,
      "componentType": 5126,
      "count": 868,
      "max": [
        0.9906579852104187,
        0.989251971244812
      ],
      "min": [
        0.010123999789357185,
        0.01193500030785799
      ],
      "type": "VEC2"
    },
    {
      "bufferView": 0,
      "byteOffset": 3264,
      "componentType": 5125,
      "count": 3648,
      "type": "SCALAR"
    },
    {
      "bufferView": 2,
      "byteOffset": 27552,
      "componentType": 5126,
      "count": 732,
      "max": [
        10.657937049865723,
        3.092318058013916,
        13.416367530822754
      ],
      "min": [
        -10.657930374145508,
        1.9999999949504854e-06,
        -13.41637897491455
      ],
      "type": "VEC3"
    },
    {
      "bufferView": 2,
      "byteOffset": 36336,
      "componentType": 5126,
      "count": 732,
      "max": [
        1.0,
        1.0,
        1.0
      ],
      "min": [
        -1.0,
        -1.0,
        -1.0
      ],
      "type": "VEC3"
    },
    {
      "bufferView": 1,
      "byteOffset": 9184,
      "componentType": 5126,
      "count": 732,
      "max": [
        0.9906579852104187,
        0.9894580245018005
      ],
      "min": [
        0.010123999789357185,
        0.01193500030785799
      ],
      "type": "VEC2"
    },
    {
      "bufferView": 0,
      "byteOffset": 17856,
      "componentType": 5125,
      "count": 3120,
      "type": "SCALAR"
    }
  ],
  "asset": {
    "extras": {
      "author": "liitransfield (https://sketchfab.com/liitransfield)",
      "license": "CC-BY-4.0 (http://creativecommons.org/licenses/by/4.0/)",
      "source": "https://sketchfab.com/3d-models/bound-books-version-2-painted-texture-a5cce410728140c492855a109f219ac1",
      "title": "Bound Books Version 2 - Painted Texture"
    },
    "generator": "Sketchfab-12.68.0",
    "version": "2.0"
  },
  "bufferViews": [
    {
      "buffer": 0,
      "byteLength": 30336,
      "name": "floatBufferViews",
      "target": 34963
    },
    {
      "buffer": 0,
      "byteLength": 15040,
      "byteOffset": 30336,
      "byteStride": 8,
      "name": "floatBufferViews",
      "target": 34962
    },
    {
      "buffer": 0,
      "byteLength": 45120,
      "byteOffset": 45376,
      "byteStride": 12,
      "name": "floatBufferViews",
      "target": 34962
    },
    {
      "buffer": 0,
      "byteLength": 4480,
      "byteOffset": 90496,
      "byteStride": 16,
      "name": "floatBufferViews",
      "target": 34962
    }
  ],
  "buffers": [
    {
      "byteLength": 94976,
      "uri": "scene.bin"
    }
  ],
  "images": [
    {
      "uri": "textures/Books_Shader_baseColor.jpeg"
    },
    {
      "uri": "textures/Books_Shader_metallicRoughness.png"
    },
    {
      "uri": "textures/Books_Lower_Shader_baseColor.jpeg"
    },
    {
      "uri": "textures/Books_Lower_Shader_metallicRoughness.png"
    },
    {
      "uri": "textures/Strap_Shader_baseColor.jpeg"
    },
    {
      "uri": "textures/Strap_Shader_metallicRoughness.png"
    },
    {
      "uri": "textures/Strap_Shader_normal.png"
    }
  ],
  "materials": [
    {
      "doubleSided": true,
      "name": "Books_Shader",
      "pbrMetallicRoughness": {
        "baseColorFactor": [
          0.506365191,
          0.506365191,
          0.506365191,
          1.0
        ],
        "baseColorTexture": {
          "index": 0
        },
        "metallicRoughnessTexture": {
          "index": 1
        }
      }
    },
    {
      "doubleSided": true,
      "name": "Books_Lower_Shader",
      "pbrMetallicRoughness": {
        "baseColorTexture": {
          "index": 2
        },
        "metallicRoughnessTexture": {
          "index": 3
        }
      }
    },
    {
      "doubleSided": true,
      "name": "Strap_Shader",
      "normalTexture": {
        "index": 6
      },
      "pbrMetallicRoughness": {
        "baseColorFactor": [
          0.506365191,
          0.506365191,
          0.506365191,
          1.0
        ],
        "baseColorTexture": {
          "index": 4
        },
        "metallicRoughnessTexture": {
          "index": 5
        }
      }
    }
  ],
  "meshes": [
    {
      "name": "defaultMaterial",
      "primitives": [
        {
          "attributes": {
            "NORMAL": 1,
            "POSITION": 0,
            "TANGENT": 2,
            "TEXCOORD_0": 3
          },
          "indices": 4,
          "material": 2,
          "mode": 4
        }
      ]
    },
    {
      "name": "defaultMaterial",
      "primitives": [
        {
          "attributes": {
            "NORMAL": 6,
            "POSITION": 5,
            "TEXCOORD_0": 7
          },
          "indices": 8,
          "material": 0,
          "mode": 4
        }
      ]
    },
    {
      "name": "defaultMaterial",
      "primitives": [
        {
          "attributes": {
            "NORMAL": 10,
            "POSITION": 9,
            "TEXCOORD_0": 11
          },
          "indices": 12,
          "material": 1,
          "mode": 4
        }
      ]
    }
  ],
  "nodes": [
    {
      "children": [
        1
      ],
      "matrix": [
        1.0,
        0.0,
        0.0,
        0.0,
        0.0,
        2.220446049250313e-16,
        -1.0,
        0.0,
        0.0,
        1.0,
        2.220446049250313e-16,
        0.0,
        0.0,
        0.0,
        0.0,
        1.0
      ],
      "name": "Sketchfab_model"
    },
    {
      "children": [
        2,
        4
      ],
      "matrix": [
        1.0,
        0.0,
        0.0,
        0.0,
        0.0,
        -4.371139006309477e-08,
        0.999999999999999,
        0.0,
        0.0,
        -0.999999999999999,
        -4.371139006309477e-08,
        0.0,
        0.0,
        0.0,
        0.0,
        1.0
      ],
      "name": "Collada visual scene group"
    },
    {
      "children": [
        3
      ],
      "name": "strap_geo"
    },
    {
      "mesh": 0,
      "name": "defaultMaterial"
    },
    {
      "children": [
        5,
        6
      ],
      "name": "books_geo"
    },
    {
      "mesh": 1,
      "name": "defaultMaterial"
    },
    {
      "mesh": 2,
      "name": "defaultMaterial"
    }
  ],
  "samplers": [
    {
      "magFilter": 9729,
      "minFilter": 9987,
      "wrapS": 10497,
      "wrapT": 10497
    }
  ],
  "scene": 0,
  "scenes": [
    {
      "name": "Sketchfab_Scene",
      "nodes": [
        0
      ]
    }
  ],
  "textures": [
    {
      "sampler": 0,
      "source": 0
    },
    {
      "sampler": 0,
      "source": 1
    },
    {
      "sampler": 0,
      "source": 2
    },
    {
      "sampler": 0,
      "source": 3
    },
    {
      "sampler": 0,
      "source": 4
    },
    {
      "sampler": 0,
      "source": 5
    },
    {
      "sampler": 0,
      "source": 6
    }
  ]
}
