{
  "accessors": [
    {
      "bufferView": 2,
      "componentType": 5126,
      "count": 330,
      "max": [
        50.0,
        2.8467795848846436,
        50.0
      ],
      "min": [
        -50.0,
        -1.1102230246251565e-14,
        -50.0
      ],
      "type": "VEC3"
    },
    {
      "bufferView": 2,
      "byteOffset": 3960,
      "componentType": 5126,
      "count": 330,
      "max": [
        1.0,
        1.0,
        1.0
      ],
      "min": [
        -1.0,
        -1.0,
        -1.0
      ],
      "type": "VEC3"
    },
    {
      "bufferView": 1,
      "componentType": 5126,
      "count": 330,
      "max": [
        0.9370509386062622,
        0.9753997325897217
      ],
      "min": [
        0.03660508990287781,
        0.020527377724647522
      ],
      "type": "VEC2"
    },
    {
      "bufferView": 0,
      "componentType": 5125,
      "count": 1440,
      "type": "SCALAR"
    },
    {
      "bufferView": 2,
      "byteOffset": 7920,
      "componentType": 5126,
      "count": 121,
      "max": [
        50.0,
        1.1102230246251565e-14,
        50.0
      ],
      "min": [
        -50.0,
        -1.1102230246251565e-14,
        -50.0
      ],
      "type": "VEC3"
    },
    {
      "bufferView": 2,
      "byteOffset": 9372,
      "componentType": 5126,
      "count": 121,
      "max": [
        0.0,
        1.0,
        2.220446049250313e-16
      ],
      "min": [
        0.0,
        1.0,
        2.220446049250313e-16
      ],
      "type": "VEC3"
    },
    {
      "bufferView": 1,
      "byteOffset": 2640,
      "componentType": 5126,
      "count": 121,
      "max": [
        0.4447389245033264,
        0.9477425813674927
      ],
      "min": [
        0.031586118042469025,
        0.5345896482467651
      ],
      "type": "VEC2"
    },
    {
      "bufferView": 0,
      "byteOffset": 5760,
      "componentType": 5125,
      "count": 600,
      "type": "SCALAR"
    },
    {
      "bufferView": 2,
      "byteOffset": 10824,
      "componentType": 5126,
      "count": 447,
      "max": [
        62.99354553222656,
        116.4693603515625,
        138.2222900390625
      ],
      "min": [
        -91.80665588378906,
        36.28299331665039,
        21.060882568359375
      ],
      "type": "VEC3"
    },
    {
      "bufferView": 2,
      "byteOffset": 16188,
      "componentType": 5126,
      "count": 447,
      "max": [
        0.9980825185775757,
        0.9996147751808167,
        0.9975107908248901
      ],
      "min": [
        -0.999115526676178,
        -0.998138427734375,
        -0.9927988052368164
      ],
      "type": "VEC3"
    },
    {
      "bufferView": 1,
      "byteOffset": 3608,
      "componentType": 5126,
      "count": 447,
      "max": [
        1.0,
        0.5994316935539246
      ],
      "min": [
        0.0,
        0.0
      ],
      "type": "VEC2"
    },
    {
      "bufferView": 0,
      "byteOffset": 8160,
      "componentType": 5125,
      "count": 2280,
      "type": "SCALAR"
    },
    {
      "bufferView": 2,
      "byteOffset": 21552,
      "componentType": 5126,
      "count": 105,
      "max": [
        179.3340301513672,
        39.67475509643555,
        142.85040283203125
      ],
      "min": [
        -181.82598876953125,
        11.773780822753906,
        -7.816291809082031
      ],
      "type": "VEC3"
    },
    {
      "bufferView": 2,
      "byteOffset": 22812,
      "componentType": 5126,
      "count": 105,
      "max": [
        0.9558850526809692,
        1.0,
        0.9999764561653137
      ],
      "min": [
        -0.9648207426071167,
        -1.0,
        -0.9998574256896973
      ],
      "type": "VEC3"
    },
    {
      "bufferView": 1,
      "byteOffset": 7184,
      "componentType": 5126,
      "count": 105,
      "max": [
        0.6918345093727112,
        0.9639523029327393
      ],
      "min": [
        0.019674353301525116,
        0.34377628564834595
      ],
      "type": "VEC2"
    },
    {
      "bufferView": 0,
      "byteOffset": 17280,
      "componentType": 5125,
      "count": 360,
      "type": "SCALAR"
    },
    {
      "bufferView": 2,
      "byteOffset": 24072,
      "componentType": 5126,
      "count": 242,
      "max": [
        102.2962646484375,
        49.867401123046875,
        150.36196899414063
      ],
      "min": [
        -117.3406982421875,
        27.59088134765625,
        -3.8230514526367188
      ],
      "type": "VEC3"
    },
    {
      "bufferView": 2,
      "byteOffset": 26976,
      "componentType": 5126,
      "count": 242,
      "max": [
        0.9999800324440002,
        0.9992976784706116,
        0.9996079802513123
      ],
      "min": [
        -0.9990137219429016,
        -0.9992987513542175,
        -0.9999629259109497
      ],
      "type": "VEC3"
    },
    {
      "bufferView": 1,
      "byteOffset": 8024,
      "componentType": 5126,
      "count": 242,
      "max": [
        0.9703552722930908,
        0.9622275829315186
      ],
      "min": [
        0.46745628118515015,
        0.25847211480140686
      ],
      "type": "VEC2"
    },
    {
      "bufferView": 0,
      "byteOffset": 18720,
      "componentType": 5125,
      "count": 480,
      "type": "SCALAR"
    },
    {
      "bufferView": 2,
      "byteOffset": 29880,
      "componentType": 5126,
      "count": 105,
      "max": [
        179.3340301513672,
        39.67475509643555,
        -31.655136108398438
      ],
      "min": [
        -181.82598876953125,
        11.773780822753906,
        -182.32183837890625
      ],
      "type": "VEC3"
    },
    {
      "bufferView": 2,
      "byteOffset": 31140,
      "componentType": 5126,
      "count": 105,
      "max": [
        0.9558850526809692,
        1.0,
        0.9999764561653137
      ],
      "min": [
        -0.9648207426071167,
        -1.0,
        -0.9998574256896973
      ],
      "type": "VEC3"
    },
    {
      "bufferView": 1,
      "byteOffset": 9960,
      "componentType": 5126,
      "count": 105,
      "max": [
        0.6918345093727112,
        0.9639523029327393
      ],
      "min": [
        0.019674353301525116,
        0.34377628564834595
      ],
      "type": "VEC2"
    },
    {
      "bufferView": 0,
      "byteOffset": 20640,
      "componentType": 5125,
      "count": 360,
      "type": "SCALAR"
    },
    {
      "bufferView": 2,
      "byteOffset": 32400,
      "componentType": 5126,
      "count": 231,
      "max": [
        97.5899658203125,
        116.40019989013672,
        -61.09693908691406
      ],
      "min": [
        -9.2399320602417,
        36.587005615234375,
        -175.91017150878906
      ],
      "type": "VEC3"
    },
    {
      "bufferView": 2,
      "byteOffset": 35172,
      "componentType": 5126,
      "count": 231,
      "max": [
        0.997475266456604,
        0.999524712562561,
        0.9835556149482727
      ],
      "min": [
        -0.890716552734375,
        -0.9973444938659668,
        -0.9918765425682068
      ],
      "type": "VEC3"
    },
    {
      "bufferView": 1,
      "byteOffset": 10800,
      "componentType": 5126,
      "count": 231,
      "max": [
        0.5201084017753601,
        0.8622759580612183
      ],
      "min": [
        0.019519492983818054,
        0.05095113813877106
      ],
      "type": "VEC2"
    },
    {
      "bufferView": 0,
      "byteOffset": 22080,
      "componentType": 5125,
      "count": 1194,
      "type": "SCALAR"
    },
    {
      "bufferView": 2,
      "byteOffset": 37944,
      "componentType": 5126,
      "count": 231,
      "max": [
        -0.8373603820800781,
        116.35269165039063,
        -48.72252655029297
      ],
      "min": [
        -85.5905532836914,
        36.467918395996094,
        -164.92904663085938
      ],
      "type": "VEC3"
    },
    {
      "bufferView": 2,
      "byteOffset": 40716,
      "componentType": 5126,
      "count": 231,
      "max": [
        0.9928684234619141,
        0.9978691935539246,
        0.925818920135498
      ],
      "min": [
        -0.9941810369491577,
        -0.9978609681129456,
        -0.9927735328674316
      ],
      "type": "VEC3"
    },
    {
      "bufferView": 1,
      "byteOffset": 12648,
      "componentType": 5126,
      "count": 231,
      "max": [
        0.5845604538917542,
        0.9710793495178223
      ],
      "min": [
        0.04023623466491699,
        0.12000694125890732
      ],
      "type": "VEC2"
    },
    {
      "bufferView": 0,
      "byteOffset": 26856,
      "componentType": 5125,
      "count": 1194,
      "type": "SCALAR"
    },
    {
      "bufferView": 2,
      "byteOffset": 43488,
      "componentType": 5126,
      "count": 242,
      "max": [
        102.2962646484375,
        49.867401123046875,
        -24.143577575683594
      ],
      "min": [
        -117.3406982421875,
        27.59088134765625,
        -178.32858276367188
      ],
      "type": "VEC3"
    },
    {
      "bufferView": 2,
      "byteOffset": 46392,
      "componentType": 5126,
      "count": 242,
      "max": [
        0.9999800324440002,
        0.9992976784706116,
        0.9996079802513123
      ],
      "min": [
        -0.9990137219429016,
        -0.9992987513542175,
        -0.9999629259109497
      ],
      "type": "VEC3"
    },
    {
      "bufferView": 1,
      "byteOffset": 14496,
      "componentType": 5126,
      "count": 242,
      "max": [
        0.9703552722930908,
        0.9622275829315186
      ],
      "min": [
        0.46745628118515015,
        0.25847211480140686
      ],
      "type": "VEC2"
    },
    {
      "bufferView": 0,
      "byteOffset": 31632,
      "componentType": 5125,
      "count": 480,
      "type": "SCALAR"
    }
  ],
  "asset": {
    "extras": {
      "author": "Citrus (https://sketchfab.com/citrusfriendd)",
      "license": "CC-BY-4.0 (http://creativecommons.org/licenses/by/4.0/)",
      "source": "https://sketchfab.com/3d-models/adventurers-breakfast-sandwich-2494dad986d947c58351076b7343877a",
      "title": "Adventurer's Breakfast Sandwich"
    },
    "generator": "Sketchfab-12.68.0",
    "version": "2.0"
  },
  "bufferViews": [
    {
      "buffer": 0,
      "byteLength": 33552,
      "name": "floatBufferViews",
      "target": 34963
    },
    {
      "buffer": 0,
      "byteLength": 16432,
      "byteOffset": 33552,
      "byteStride": 8,
      "name": "floatBufferViews",
      "target": 34962
    },
    {
      "buffer": 0,
      "byteLength": 49296,
      "byteOffset": 49984,
      "byteStride": 12,
      "name": "floatBufferViews",
      "target": 34962
    }
  ],
  "buffers": [
    {
      "byteLength": 99280,
      "uri": "scene.bin"
    }
  ],
  "extensionsUsed": [
    "KHR_materials_unlit"
  ],
  "images": [
    {
      "uri": "textures/lambert2_baseColor.png"
    },
    {
      "uri": "textures/lambert4_baseColor.png"
    },
    {
      "uri": "textures/lambert6_baseColor.png"
    },
    {
      "uri": "textures/lambert3_baseColor.png"
    },
    {
      "uri": "textures/lambert5_baseColor.png"
    }
  ],
  "materials": [
    {
      "doubleSided": true,
      "extensions": {
        "KHR_materials_unlit": {}
      },
      "name": "lambert2",
      "pbrMetallicRoughness": {
        "baseColorTexture": {
          "index": 0
        },
        "metallicFactor": 0.0
      }
    },
    {
      "doubleSided": true,
      "extensions": {
        "KHR_materials_unlit": {}
      },
      "name": "lambert4",
      "pbrMetallicRoughness": {
        "baseColorTexture": {
          "index": 1
        },
        "metallicFactor": 0.0
      }
    },
    {
      "doubleSided": true,
      "extensions": {
        "KHR_materials_unlit": {}
      },
      "name": "lambert6",
      "pbrMetallicRoughness": {
        "baseColorTexture": {
          "index": 2
        },
        "metallicFactor": 0.0
      }
    },
    {
      "doubleSided": true,
      "extensions": {
        "KHR_materials_unlit": {}
      },
      "name": "lambert3",
      "pbrMetallicRoughness": {
        "baseColorTexture": {
          "index": 3
        },
        "metallicFactor": 0.0
      }
    },
    {
      "doubleSided": true,
      "extensions": {
        "KHR_materials_unlit": {}
      },
      "name": "lambert5",
      "pbrMetallicRoughness": {
        "baseColorTexture": {
          "index": 4
        },
        "metallicFactor": 0.0
      }
    }
  ],
  "meshes": [
    {
      "name": "pPlane1_lambert2_0",
      "primitives": [
        {
          "attributes": {
            "NORMAL": 1,
            "POSITION": 0,
            "TEXCOORD_0": 2
          },
          "indices": 3,
          "material": 0,
          "mode": 4
        }
      ]
    },
    {
      "name": "pPlane2_lambert2_0",
      "primitives": [
        {
          "attributes": {
            "NORMAL": 5,
            "POSITION": 4,
            "TEXCOORD_0": 6
          },
          "indices": 7,
          "material": 0,
          "mode": 4
        }
      ]
    },
    {
      "name": "pSphere3_lambert4_0",
      "primitives": [
        {
          "attributes": {
            "NORMAL": 9,
            "POSITION": 8,
            "TEXCOORD_0": 10
          },
          "indices": 11,
          "material": 1,
          "mode": 4
        }
      ]
    },
    {
      "name": "pCylinder1_lambert6_0",
      "primitives": [
        {
          "attributes": {
            "NORMAL": 13,
            "POSITION": 12,
            "TEXCOORD_0": 14
          },
          "indices": 15,
          "material": 2,
          "mode": 4
        }
      ]
    },
    {
      "name": "pCylinder2_lambert6_0",
      "primitives": [
        {
          "attributes": {
            "NORMAL": 17,
            "POSITION": 16,
            "TEXCOORD_0": 18
          },
          "indices": 19,
          "material": 2,
          "mode": 4
        }
      ]
    },
    {
      "name": "pCylinder3_lambert3_0",
      "primitives": [
        {
          "attributes": {
            "NORMAL": 21,
            "POSITION": 20,
            "TEXCOORD_0": 22
          },
          "indices": 23,
          "material": 3,
          "mode": 4
        }
      ]
    },
    {
      "name": "polySurface3_lambert5_0",
      "primitives": [
        {
          "attributes": {
            "NORMAL": 25,
            "POSITION": 24,
            "TEXCOORD_0": 26
          },
          "indices": 27,
          "material": 4,
          "mode": 4
        }
      ]
    },
    {
      "name": "polySurface4_lambert5_0",
      "primitives": [
        {
          "attributes": {
            "NORMAL": 29,
            "POSITION": 28,
            "TEXCOORD_0": 30
          },
          "indices": 31,
          "material": 4,
          "mode": 4
        }
      ]
    },
    {
      "name": "pCylinder4_lambert3_0",
      "primitives": [
        {
          "attributes": {
            "NORMAL": 33,
            "POSITION": 32,
            "TEXCOORD_0": 34
          },
          "indices": 35,
          "material": 3,
          "mode": 4
        }
      ]
    }
  ],
  "nodes": [
    {
      "children": [
        1
      ],
      "matrix": [
        1.0,
        0.0,
        0.0,
        0.0,
        0.0,
        2.220446049250313e-16,
        -1.0,
        0.0,
        0.0,
        1.0,
        2.220446049250313e-16,
        0.0,
        0.0,
        0.0,
        0.0,
        1.0
      ],
      "name": "Sketchfab_model"
    },
    {
      "children": [
        2
      ],
      "matrix": [
        1.0,
        0.0,
        0.0,
        0.0,
        0.0,
        0.0,
        1.0,
        0.0,
        0.0,
        -1.0,
        0.0,
        0.0,
        0.0,
        0.0,
        0.0,
        1.0
      ],
      "name": "Adventurers Breakfast Sandwich.fbx"
    },
    {
      "children": [
        3,
        5,
        7,
        13
      ],
      "name": "RootNode"
    },
    {
      "children": [
        4
      ],
      "matrix": [
        4.179593563079834,
        0.0,
        0.0,
        0.0,
        0.0,
        2.536931276321411,
        0.0,
        0.0,
        0.0,
        0.0,
        4.179593563079834,
        0.0,
        0.0,
        0.0,
        0.0,
        1.0
      ],
      "name": "pPlane1"
    },
    {
      "mesh": 0,
      "name": "pPlane1_lambert2_0"
    },
    {
      "children": [
        6
      ],
      "matrix": [
        3.854576826095581,
        0.0,
        0.0,
        0.0,
        0.0,
        3.854576826095581,
        0.0,
        0.0,
        0.0,
        0.0,
        3.854576826095581,
        0.0,
        48.815547943115234,
        0.8410570621490479,
        41.14326095581055,
        1.0
      ],
      "name": "pPlane2"
    },
    {
      "mesh": 1,
      "name": "pPlane2_lambert2_0"
    },
    {
      "children": [
        8,
        9,
        11
      ],
      "matrix": [
        0.7914200749282689,
        0.0,
        0.29724108040730196,
        0.0,
        0.0,
        0.8453981280326843,
        0.0,
        0.0,
        -0.29724108040730196,
        0.0,
        0.7914200749282689,
        0.0,
        70.03002166748047,
        -2.8593311309814453,
        -96.64008331298828,
        1.0
      ],
      "name": "pSphere3"
    },
    {
      "mesh": 2,
      "name": "pSphere3_lambert4_0"
    },
    {
      "children": [
        10
      ],
      "matrix": [
        1.0,
        0.0,
        5.551115123125784e-17,
        0.0,
        0.0,
        1.0,
        0.0,
        0.0,
        -5.551115123125784e-17,
        0.0,
        1.0,
        0.0,
        0.0,
        0.0,
        0.0,
        1.0
      ],
      "name": "pCylinder1"
    },
    {
      "mesh": 3,
      "name": "pCylinder1_lambert6_0"
    },
    {
      "children": [
        12
      ],
      "matrix": [
        1.0,
        0.0,
        5.551115123125784e-17,
        0.0,
        0.0,
        1.0,
        0.0,
        0.0,
        -5.551115123125784e-17,
        0.0,
        1.0,
        0.0,
        0.0,
        0.0,
        0.0,
        1.0
      ],
      "name": "pCylinder2"
    },
    {
      "mesh": 4,
      "name": "pCylinder2_lambert6_0"
    },
    {
      "children": [
        14,
        15,
        17,
        19
      ],
      "matrix": [
        0.7914200749282689,
        0.0,
        0.29724108040730196,
        0.0,
        0.0,
        0.8453981280326843,
        0.0,
        0.0,
        -0.29724108040730196,
        0.0,
        0.7914200749282689,
        0.0,
        -82.68892669677734,
        -3.5066604614257813,
        158.49195861816406,
        1.0
      ],
      "name": "pCylinder3"
    },
    {
      "mesh": 5,
      "name": "pCylinder3_lambert3_0"
    },
    {
      "children": [
        16
      ],
      "matrix": [
        1.0,
        0.0,
        5.551115123125784e-17,
        0.0,
        0.0,
        1.0,
        0.0,
        0.0,
        -5.551115123125784e-17,
        0.0,
        1.0,
        0.0,
        0.0,
        0.0,
        0.0,
        1.0
      ],
      "name": "polySurface3"
    },
    {
      "mesh": 6,
      "name": "polySurface3_lambert5_0"
    },
    {
      "children": [
        18
      ],
      "matrix": [
        1.0,
        0.0,
        5.551115123125784e-17,
        0.0,
        0.0,
        1.0,
        0.0,
        0.0,
        -5.551115123125784e-17,
        0.0,
        1.0,
        0.0,
        0.0,
        0.0,
        0.0,
        1.0
      ],
      "name": "polySurface4"
    },
    {
      "mesh": 7,
      "name": "polySurface4_lambert5_0"
    },
    {
      "children": [
        20
      ],
      "matrix": [
        1.0,
        0.0,
        5.551115123125784e-17,
        0.0,
        0.0,
        1.0,
        0.0,
        0.0,
        -5.551115123125784e-17,
        0.0,
        1.0,
        0.0,
        0.0,
        0.0,
        0.0,
        1.0
      ],
      "name": "pCylinder4"
    },
    {
      "mesh": 8,
      "name": "pCylinder4_lambert3_0"
    }
  ],
  "samplers": [
    {
      "magFilter": 9729,
      "minFilter": 9987,
      "wrapS": 10497,
      "wrapT": 10497
    }
  ],
  "scene": 0,
  "scenes": [
    {
      "name": "Sketchfab_Scene",
      "nodes": [
        0
      ]
    }
  ],
  "textures": [
    {
      "sampler": 0,
      "source": 0
    },
    {
      "sampler": 0,
      "source": 1
    },
    {
      "sampler": 0,
      "source": 2
    },
    {
      "sampler": 0,
      "source": 3
    },
    {
      "sampler": 0,
      "source": 4
    }
  ]
}
