{
  "accessors": [
    {
      "bufferView": 2,
      "componentType": 5126,
      "count": 26459,
      "max": [
        1.82480788230896,
        1.112396240234375,
        1.666356086730957
      ],
      "min": [
        -1.961097002029419,
        -1.5620269775390625,
        -2.0512301921844482
      ],
      "type": "VEC3"
    },
    {
      "bufferView": 2,
      "byteOffset": 317508,
      "componentType": 5126,
      "count": 26459,
      "max": [
        0.9999285936355591,
        0.9998824000358582,
        0.9999704360961914
      ],
      "min": [
        -0.999989926815033,
        -0.9998941421508789,
        -0.9999639987945557
      ],
      "type": "VEC3"
    },
    {
      "bufferView": 1,
      "componentType": 5126,
      "count": 26459,
      "max": [
        0.9784033298492432,
        0.9996305704116821
      ],
      "min": [
        0.0001323931646766141,
        0.00017112493515014648
      ],
      "type": "VEC2"
    },
    {
      "bufferView": 0,
      "componentType": 5125,
      "count": 148815,
      "type": "SCALAR"
    }
  ],
  "asset": {
    "extras": {
      "author": "Aupuma (https://sketchfab.com/aupuma)",
      "license": "CC-BY-4.0 (http://creativecommons.org/licenses/by/4.0/)",
      "source": "https://sketchfab.com/3d-models/kirby-plush-8923e9ea0193466f849f1625f483972f",
      "title": "Kirby Plush"
    },
    "generator": "Sketchfab-12.67.0",
    "version": "2.0"
  },
  "bufferViews": [
    {
      "buffer": 0,
      "byteLength": 595260,
      "name": "floatBufferViews",
      "target": 34963
    },
    {
      "buffer": 0,
      "byteLength": 211672,
      "byteOffset": 595260,
      "byteStride": 8,
      "name": "floatBufferViews",
      "target": 34962
    },
    {
      "buffer": 0,
      "byteLength": 635016,
      "byteOffset": 806932,
      "byteStride": 12,
      "name": "floatBufferViews",
      "target": 34962
    }
  ],
  "buffers": [
    {
      "byteLength": 1441948,
      "uri": "scene.bin"
    }
  ],
  "images": [
    {
      "uri": "textures/Material_0_baseColor.jpeg"
    }
  ],
  "materials": [
    {
      "name": "Material_0",
      "pbrMetallicRoughness": {
        "baseColorTexture": {
          "index": 0
        },
        "metallicFactor": 0.0
      }
    }
  ],
  "meshes": [
    {
      "name": "Object_0",
      "primitives": [
        {
          "attributes": {
            "NORMAL": 1,
            "POSITION": 0,
            "TEXCOORD_0": 2
          },
          "indices": 3,
          "material": 0,
          "mode": 4
        }
      ]
    }
  ],
  "nodes": [
    {
      "children": [
        1
      ],
      "matrix": [
        0.05160948634147644,
        0.0,
        0.0,
        0.0,
        0.0,
        1.1459608005076936e-17,
        -0.05160948634147644,
        0.0,
        0.0,
        0.05160948634147644,
        1.1459608005076936e-17,
        0.0,
        0.0,
        0.0,
        0.0,
        1.0
      ],
      "name": "Sketchfab_model"
    },
    {
      "children": [
        2
      ],
      "name": "root"
    },
    {
      "children": [
        3
      ],
      "matrix": [
        1.0,
        0.0,
        0.0,
        0.0,
        0.0,
        2.220446049250313e-16,
        1.0,
        0.0,
        0.0,
        -1.0,
        2.220446049250313e-16,
        0.0,
        0.0,
        0.0,
        0.0,
        1.0
      ],
      "name": "GLTF_SceneRootNode"
    },
    {
      "children": [
        4
      ],
      "matrix": [
        0.9846980011215799,
        -0.1714028906853693,
        0.03147849506987742,
        0.0,
        -0.03134332462690548,
        0.003495433837630846,
        0.9995025652511449,
        0.0,
        -0.1714276599283131,
        -0.9851948188084356,
        -0.0019303897317737295,
        0.0,
        0.0,
        0.0,
        0.0,
        1.0
      ],
      "name": "Object_0_2"
    },
    {
      "mesh": 0,
      "name": "Object_4"
    }
  ],
  "samplers": [
    {
      "magFilter": 9729,
      "minFilter": 9987,
      "wrapS": 10497,
      "wrapT": 10497
    }
  ],
  "scene": 0,
  "scenes": [
    {
      "name": "Sketchfab_Scene",
      "nodes": [
        0
      ]
    }
  ],
  "textures": [
    {
      "sampler": 0,
      "source": 0
    }
  ]
}
