{
  "accessors": [
    {
      "bufferView": 2,
      "componentType": 5126,
      "count": 154,
      "max": [
        0.862945020198822,
        0.6263129711151123,
        -0.9402490258216858
      ],
      "min": [
        -0.3155499994754791,
        -0.7445480227470398,
        -3.7721149921417236
      ],
      "type": "VEC3"
    },
    {
      "bufferView": 2,
      "byteOffset": 1848,
      "componentType": 5126,
      "count": 154,
      "max": [
        0.9974939227104187,
        0.9970301389694214,
        0.9868309497833252
      ],
      "min": [
        -0.9978479146957397,
        -0.9960170984268188,
        -0.9862802624702454
      ],
      "type": "VEC3"
    },
    {
      "bufferView": 0,
      "componentType": 5125,
      "count": 876,
      "type": "SCALAR"
    },
    {
      "bufferView": 2,
      "byteOffset": 3696,
      "componentType": 5126,
      "count": 3517,
      "max": [
        0.6982679963111877,
        1.649703025817871,
        1.1060550212860107
      ],
      "min": [
        -0.7041550278663635,
        -1.5818370580673218,
        -1.7608879804611206
      ],
      "type": "VEC3"
    },
    {
      "bufferView": 2,
      "byteOffset": 45900,
      "componentType": 5126,
      "count": 3517,
      "max": [
        0.9998854398727417,
        0.9999501705169678,
        0.9976486563682556
      ],
      "min": [
        -0.9994254112243652,
        -0.9999575614929199,
        -0.9982098937034607
      ],
      "type": "VEC3"
    },
    {
      "bufferView": 1,
      "componentType": 5126,
      "count": 3517,
      "max": [
        0.9995160102844238,
        0.9948030114173889
      ],
      "min": [
        0.0004839999892283231,
        0.0004839999892283231
      ],
      "type": "VEC2"
    },
    {
      "bufferView": 0,
      "byteOffset": 3504,
      "componentType": 5125,
      "count": 17466,
      "type": "SCALAR"
    },
    {
      "bufferView": 2,
      "byteOffset": 88104,
      "componentType": 5126,
      "count": 3396,
      "max": [
        0.8728700280189514,
        1.6593140363693237,
        1.1157070398330688
      ],
      "min": [
        -0.7140690088272095,
        -1.591783046722412,
        -3.779858112335205
      ],
      "type": "VEC3"
    },
    {
      "bufferView": 2,
      "byteOffset": 128856,
      "componentType": 5126,
      "count": 3396,
      "max": [
        0.9991815090179443,
        0.9999368190765381,
        0.9980579614639282
      ],
      "min": [
        -0.9998399615287781,
        -0.9999814033508301,
        -0.9981635212898254
      ],
      "type": "VEC3"
    },
    {
      "bufferView": 1,
      "byteOffset": 28136,
      "componentType": 5126,
      "count": 3396,
      "max": [
        0.9995160102844238,
        0.9948030114173889
      ],
      "min": [
        0.0,
        0.0
      ],
      "type": "VEC2"
    },
    {
      "bufferView": 0,
      "byteOffset": 73368,
      "componentType": 5125,
      "count": 17202,
      "type": "SCALAR"
    }
  ],
  "asset": {
    "extras": {
      "author": "Coffeek (https://sketchfab.com/coffe0wolf)",
      "license": "CC-BY-4.0 (http://creativecommons.org/licenses/by/4.0/)",
      "source": "https://sketchfab.com/3d-models/cattroller-6df1f908bf504e7c84aed24b92d90aa7",
      "title": "Cattroller"
    },
    "generator": "Sketchfab-12.58.0",
    "version": "2.0"
  },
  "bufferViews": [
    {
      "buffer": 0,
      "byteLength": 142176,
      "name": "floatBufferViews",
      "target": 34963
    },
    {
      "buffer": 0,
      "byteLength": 55304,
      "byteOffset": 142176,
      "byteStride": 8,
      "name": "floatBufferViews",
      "target": 34962
    },
    {
      "buffer": 0,
      "byteLength": 169608,
      "byteOffset": 197480,
      "byteStride": 12,
      "name": "floatBufferViews",
      "target": 34962
    }
  ],
  "buffers": [
    {
      "byteLength": 367088,
      "uri": "scene.bin"
    }
  ],
  "extensionsUsed": [
    "KHR_materials_unlit"
  ],
  "images": [
    {
      "uri": "textures/cattroller_baseColor.png"
    }
  ],
  "materials": [
    {
      "doubleSided": true,
      "extensions": {
        "KHR_materials_unlit": {}
      },
      "name": "None",
      "pbrMetallicRoughness": {
        "baseColorFactor": [
          0.277874772,
          0.2516920015,
          0.2516920015,
          1.0
        ],
        "metallicFactor": 0.0
      }
    },
    {
      "doubleSided": true,
      "extensions": {
        "KHR_materials_unlit": {}
      },
      "name": "cattroller",
      "pbrMetallicRoughness": {
        "baseColorTexture": {
          "index": 0
        },
        "metallicFactor": 0.0
      }
    },
    {
      "extensions": {
        "KHR_materials_unlit": {}
      },
      "name": "outline",
      "pbrMetallicRoughness": {
        "baseColorFactor": [
          0.16690275742970262,
          0.06691387748949275,
          0.06691387748949275,
          1.0
        ],
        "metallicFactor": 0.0
      }
    }
  ],
  "meshes": [
    {
      "name": "Object_0",
      "primitives": [
        {
          "attributes": {
            "NORMAL": 1,
            "POSITION": 0
          },
          "indices": 2,
          "material": 0,
          "mode": 4
        }
      ]
    },
    {
      "name": "Object_1",
      "primitives": [
        {
          "attributes": {
            "NORMAL": 4,
            "POSITION": 3,
            "TEXCOORD_0": 5
          },
          "indices": 6,
          "material": 1,
          "mode": 4
        }
      ]
    },
    {
      "name": "Object_2",
      "primitives": [
        {
          "attributes": {
            "NORMAL": 8,
            "POSITION": 7,
            "TEXCOORD_0": 9
          },
          "indices": 10,
          "material": 2,
          "mode": 4
        }
      ]
    }
  ],
  "nodes": [
    {
      "children": [
        1
      ],
      "matrix": [
        1.0,
        0.0,
        0.0,
        0.0,
        0.0,
        2.220446049250313e-16,
        -1.0,
        0.0,
        0.0,
        1.0,
        2.220446049250313e-16,
        0.0,
        0.0,
        0.0,
        0.0,
        1.0
      ],
      "name": "Sketchfab_model"
    },
    {
      "children": [
        2,
        3,
        4
      ],
      "name": "controller_3.obj.cleaner.materialmerger.gles"
    },
    {
      "mesh": 0,
      "name": "Object_2"
    },
    {
      "mesh": 1,
      "name": "Object_3"
    },
    {
      "mesh": 2,
      "name": "Object_4"
    }
  ],
  "samplers": [
    {
      "magFilter": 9729,
      "minFilter": 9987,
      "wrapS": 10497,
      "wrapT": 10497
    }
  ],
  "scene": 0,
  "scenes": [
    {
      "name": "Sketchfab_Scene",
      "nodes": [
        0
      ]
    }
  ],
  "textures": [
    {
      "sampler": 0,
      "source": 0
    }
  ]
}
